HIERARCHY
ROOT Hips
{
	OFFSET -0.001795 -0.223333 0.028219
	CHANNELS 6 Xposition Yposition Zposition Zrotation Yrotation Xrotation 
	JOINT LeftUpLeg
	{
		OFFSET 0.069520 -0.091406 -0.006815
		CHANNELS 3 Zrotation Yrotation Xrotation
		JOINT LeftLeg
		{
			OFFSET 0.034277 -0.375199 -0.004496
			CHANNELS 3 Zrotation Yrotation Xrotation
			JOINT LeftFoot
			{
				OFFSET -0.013596 -0.397961 -0.043693
				CHANNELS 3 Zrotation Yrotation Xrotation
				JOINT LeftToe
				{
					OFFSET 0.026358 -0.055791 0.119288
					CHANNELS 3 Zrotation Yrotation Xrotation
					End Site
					{
						OFFSET 0.000000 0.000000 0.000000
					}
				}
			}
		}
	}
	JOINT RightUpLeg
	{
		OFFSET -0.067670 -0.090522 -0.004320
		CHANNELS 3 Zrotation Yrotation Xrotation
		JOINT RightLeg
		{
			OFFSET -0.038290 -0.382569 -0.008850
			CHANNELS 3 Zrotation Yrotation Xrotation
			JOINT RightFoot
			{
				OFFSET 0.015774 -0.398415 -0.042312
				CHANNELS 3 Zrotation Yrotation Xrotation
				JOINT RightToe
				{
					OFFSET -0.025372 -0.048144 0.123348
					CHANNELS 3 Zrotation Yrotation Xrotation
					End Site
					{
						OFFSET 0.000000 0.000000 0.000000
					}
				}
			}
		}
	}
	JOINT Spine
	{
		OFFSET -0.002533 0.108963 -0.026696
		CHANNELS 3 Zrotation Yrotation Xrotation
		JOINT Spine1
		{
			OFFSET 0.005487 0.135180 0.001092
			CHANNELS 3 Zrotation Yrotation Xrotation
			JOINT Spine2
			{
				OFFSET 0.001457 0.052922 0.025425
				CHANNELS 3 Zrotation Yrotation Xrotation
				JOINT Neck
				{
					OFFSET -0.002778 0.213870 -0.042857
					CHANNELS 3 Zrotation Yrotation Xrotation
					JOINT Head
					{
						OFFSET 0.005152 0.064970 0.051349
						CHANNELS 3 Zrotation Yrotation Xrotation
						End Site
						{
							OFFSET 0.000000 0.000000 0.000000
						}
					}
				}
				JOINT LeftShoulder
				{
					OFFSET 0.078845 0.121749 -0.034090
					CHANNELS 3 Zrotation Yrotation Xrotation
					JOINT LeftArm
					{
						OFFSET 0.090977 0.030469 -0.008868
						CHANNELS 3 Zrotation Yrotation Xrotation
						JOINT LeftForeArm
						{
							OFFSET 0.259612 -0.012772 -0.027456
							CHANNELS 3 Zrotation Yrotation Xrotation
							JOINT LeftHand
							{
								OFFSET 0.249234 0.008986 -0.001171
								CHANNELS 3 Zrotation Yrotation Xrotation
								End Site
								{
									OFFSET 0.000000 0.000000 0.000000
								}
							}
						}
					}
				}
				JOINT RightShoulder
				{
					OFFSET -0.081759 0.118833 -0.038615
					CHANNELS 3 Zrotation Yrotation Xrotation
					JOINT RightArm
					{
						OFFSET -0.096012 0.032551 -0.009143
						CHANNELS 3 Zrotation Yrotation Xrotation
						JOINT RightForeArm
						{
							OFFSET -0.253742 -0.013329 -0.021401
							CHANNELS 3 Zrotation Yrotation Xrotation
							JOINT RightHand
							{
								OFFSET -0.255298 0.007772 -0.005559
								CHANNELS 3 Zrotation Yrotation Xrotation
								End Site
								{
									OFFSET 0.000000 0.000000 0.000000
								}
							}
						}
					}
				}
			}
		}
	}
}
MOTION
Frames: 6
Frame Time: 0.050000
-0.057726 0.922259 -0.069427 -4.280173 -13.336508 -7.852873 14.909181 0.654523 5.166367 -10.151958 1.438180 -1.080471 8.476489 17.635521 8.193364 0.000000 0.000000 0.000000 -4.508912 0.048315 2.153279 4.487104 -0.334596 -4.326261 -4.524663 -15.509090 15.977094 0.000000 0.000000 0.000000 -3.628138 1.369764 38.354289 8.091805 -1.638542 -24.550049 4.966082 3.277663 21.781372 -1.742966 2.625261 -37.686267 0.000000 0.000000 0.000000 -37.040979 -6.301396 3.321513 -43.398117 -18.822162 -0.813011 -9.539541 -36.234757 5.022523 0.000000 0.000000 0.000000 15.291509 18.175265 7.195616 43.520393 15.951277 -0.202346 8.329439 32.557549 3.285617 0.000000 0.000000 0.000000 
-0.063335 0.922163 -0.070226 -4.265653 -12.711336 -7.721348 14.818040 0.613702 5.031709 -9.370840 1.290495 -1.376090 8.233653 17.215473 8.407496 0.000000 0.000000 0.000000 -4.141735 0.016545 2.264998 4.395864 -0.337089 -4.587471 -4.919569 -16.015490 15.754446 0.000000 0.000000 0.000000 -3.265606 1.153000 38.255706 8.032656 -1.653172 -24.201994 4.653205 3.129673 21.559732 -1.765975 2.650215 -37.501447 0.000000 0.000000 0.000000 -36.712066 -6.515941 3.383343 -43.310018 -18.925464 -0.726086 -9.757619 -37.233931 5.240944 0.000000 0.000000 0.000000 15.583443 18.839699 7.578229 43.497464 16.920494 0.161679 7.002365 32.778379 2.950369 0.000000 0.000000 0.000000 
-0.069066 0.922330 -0.071055 -4.127548 -12.085613 -7.701291 14.729985 0.577968 4.877514 -8.804176 1.190408 -1.475009 7.950546 16.732234 8.737130 0.000000 0.000000 0.000000 -4.055436 0.001142 2.330261 4.589898 -0.352011 -4.607410 -5.311366 -16.521044 15.508552 0.000000 0.000000 0.000000 -3.009148 0.983348 38.323309 7.813535 -1.603187 -24.093483 4.745014 3.060433 21.520773 -2.341647 2.934781 -37.246545 0.000000 0.000000 0.000000 -36.487472 -6.891096 3.542022 -43.443554 -19.098493 -0.616570 -10.370704 -37.651247 5.500848 0.000000 0.000000 0.000000 15.754301 19.205261 7.825866 43.760611 17.792844 0.475810 5.775632 32.645669 2.612875 0.000000 0.000000 0.000000 
-0.074582 0.922589 -0.071783 -4.005920 -11.199521 -7.668140 14.725422 0.530767 4.647974 -8.395796 1.109541 -1.588488 7.533435 16.040349 9.054034 0.000000 0.000000 0.000000 -3.628360 -0.049972 2.701482 4.138450 -0.343238 -5.141506 -5.787264 -17.178847 15.483999 0.000000 0.000000 0.000000 -2.761503 0.773060 38.217002 8.029564 -1.676706 -23.797720 4.418081 2.992765 21.407200 -2.686851 3.134660 -36.907065 0.000000 0.000000 0.000000 -36.218279 -7.181202 3.559855 -43.605026 -19.403064 -0.424500 -10.683328 -38.194634 5.672402 0.000000 0.000000 0.000000 16.275502 19.869106 8.293984 43.612299 18.840436 0.847714 3.687909 32.180351 2.021669 0.000000 0.000000 0.000000 
-0.079605 0.923000 -0.072390 -3.854062 -10.823097 -7.577940 14.593621 0.508756 4.446486 -7.869744 1.030568 -1.621474 7.351971 15.742187 9.472205 0.000000 0.000000 0.000000 -3.553794 -0.052269 2.608981 4.277358 -0.352901 -5.082686 -6.035581 -17.508568 15.297891 0.000000 0.000000 0.000000 -2.552963 0.644876 38.029708 8.034481 -1.699907 -23.547851 4.472196 3.192993 21.336243 -3.035745 3.346149 -36.896300 0.000000 0.000000 0.000000 -36.286939 -7.733492 3.789457 -43.997195 -19.480692 -0.316262 -10.729365 -38.568146 5.730869 0.000000 0.000000 0.000000 16.300699 20.479511 8.684904 43.697258 19.783076 1.187669 1.621557 31.423374 1.440833 0.000000 0.000000 0.000000 
-0.084072 0.923217 -0.072705 -3.694309 -10.300607 -7.661531 14.337070 0.483713 4.254028 -7.203237 0.942017 -1.386446 7.114361 15.362474 9.676453 0.000000 0.000000 0.000000 -3.498100 -0.076233 2.878314 4.338370 -0.360438 -5.284697 -6.329769 -17.907904 15.171884 0.000000 0.000000 0.000000 -2.430032 0.515917 37.630058 8.173572 -1.760178 -23.267196 4.272344 3.451184 21.260647 -3.612995 3.681802 -36.810358 0.000000 0.000000 0.000000 -36.485934 -7.947734 3.699300 -44.173916 -19.335055 -0.278373 -11.017442 -38.401835 5.766265 0.000000 0.000000 0.000000 16.816821 20.980978 9.115153 43.560691 20.449641 1.411507 -0.508495 30.637543 0.874921 0.000000 0.000000 0.000000 
